%TF.GenerationSoftware,KiCad,Pcbnew,(5.1.8)-1*%
%TF.CreationDate,2021-01-04T23:46:21-05:00*%
%TF.ProjectId,DAD_BMP280_breakout,4441445f-424d-4503-9238-305f62726561,rev?*%
%TF.SameCoordinates,Original*%
%TF.FileFunction,Copper,L1,Top*%
%TF.FilePolarity,Positive*%
%FSLAX46Y46*%
G04 Gerber Fmt 4.6, Leading zero omitted, Abs format (unit mm)*
G04 Created by KiCad (PCBNEW (5.1.8)-1) date 2021-01-04 23:46:21*
%MOMM*%
%LPD*%
G01*
G04 APERTURE LIST*
%TA.AperFunction,SMDPad,CuDef*%
%ADD10R,0.500000X0.350000*%
%TD*%
%TA.AperFunction,ComponentPad*%
%ADD11C,1.600000*%
%TD*%
%TA.AperFunction,ViaPad*%
%ADD12C,0.800000*%
%TD*%
%TA.AperFunction,Conductor*%
%ADD13C,0.250000*%
%TD*%
%TA.AperFunction,Conductor*%
%ADD14C,0.254000*%
%TD*%
%TA.AperFunction,Conductor*%
%ADD15C,0.100000*%
%TD*%
G04 APERTURE END LIST*
D10*
%TO.P,U1,8*%
%TO.N,+3V3*%
X148412000Y-106598000D03*
%TO.P,U1,7*%
%TO.N,GND*%
X148412000Y-105948000D03*
%TO.P,U1,6*%
%TO.N,+3V3*%
X148412000Y-105298000D03*
%TO.P,U1,5*%
%TO.N,GND*%
X148412000Y-104648000D03*
%TO.P,U1,4*%
%TO.N,/SCL*%
X146812000Y-104648000D03*
%TO.P,U1,3*%
%TO.N,/SDA*%
X146812000Y-105298000D03*
%TO.P,U1,2*%
%TO.N,+3V3*%
X146812000Y-105948000D03*
%TO.P,U1,1*%
%TO.N,GND*%
X146812000Y-106598000D03*
%TD*%
D11*
%TO.P,J1,1*%
%TO.N,+3V3*%
X151384000Y-101600000D03*
%TO.P,J1,2*%
%TO.N,GND*%
X148844000Y-101600000D03*
%TO.P,J1,3*%
%TO.N,/SCL*%
X146304000Y-101600000D03*
%TO.P,J1,4*%
%TO.N,/SDA*%
X143764000Y-101600000D03*
%TD*%
%TO.P,C2,2*%
%TO.N,GND*%
%TA.AperFunction,SMDPad,CuDef*%
G36*
G01*
X151859000Y-105192500D02*
X150909000Y-105192500D01*
G75*
G02*
X150659000Y-104942500I0J250000D01*
G01*
X150659000Y-104267500D01*
G75*
G02*
X150909000Y-104017500I250000J0D01*
G01*
X151859000Y-104017500D01*
G75*
G02*
X152109000Y-104267500I0J-250000D01*
G01*
X152109000Y-104942500D01*
G75*
G02*
X151859000Y-105192500I-250000J0D01*
G01*
G37*
%TD.AperFunction*%
%TO.P,C2,1*%
%TO.N,+3V3*%
%TA.AperFunction,SMDPad,CuDef*%
G36*
G01*
X151859000Y-107267500D02*
X150909000Y-107267500D01*
G75*
G02*
X150659000Y-107017500I0J250000D01*
G01*
X150659000Y-106342500D01*
G75*
G02*
X150909000Y-106092500I250000J0D01*
G01*
X151859000Y-106092500D01*
G75*
G02*
X152109000Y-106342500I0J-250000D01*
G01*
X152109000Y-107017500D01*
G75*
G02*
X151859000Y-107267500I-250000J0D01*
G01*
G37*
%TD.AperFunction*%
%TD*%
%TO.P,C1,2*%
%TO.N,GND*%
%TA.AperFunction,SMDPad,CuDef*%
G36*
G01*
X143289000Y-106135500D02*
X144239000Y-106135500D01*
G75*
G02*
X144489000Y-106385500I0J-250000D01*
G01*
X144489000Y-107060500D01*
G75*
G02*
X144239000Y-107310500I-250000J0D01*
G01*
X143289000Y-107310500D01*
G75*
G02*
X143039000Y-107060500I0J250000D01*
G01*
X143039000Y-106385500D01*
G75*
G02*
X143289000Y-106135500I250000J0D01*
G01*
G37*
%TD.AperFunction*%
%TO.P,C1,1*%
%TO.N,+3V3*%
%TA.AperFunction,SMDPad,CuDef*%
G36*
G01*
X143289000Y-104060500D02*
X144239000Y-104060500D01*
G75*
G02*
X144489000Y-104310500I0J-250000D01*
G01*
X144489000Y-104985500D01*
G75*
G02*
X144239000Y-105235500I-250000J0D01*
G01*
X143289000Y-105235500D01*
G75*
G02*
X143039000Y-104985500I0J250000D01*
G01*
X143039000Y-104310500D01*
G75*
G02*
X143289000Y-104060500I250000J0D01*
G01*
G37*
%TD.AperFunction*%
%TD*%
D12*
%TO.N,GND*%
X145542000Y-106616500D03*
X149647648Y-104648000D03*
%TD*%
D13*
%TO.N,GND*%
X145560500Y-106598000D02*
X145542000Y-106616500D01*
X146812000Y-106598000D02*
X145560500Y-106598000D01*
X145435500Y-106723000D02*
X145542000Y-106616500D01*
X143764000Y-106723000D02*
X145435500Y-106723000D01*
X149762643Y-104605000D02*
X149647648Y-104719995D01*
X151384000Y-104605000D02*
X149762643Y-104605000D01*
X149575653Y-104648000D02*
X149647648Y-104719995D01*
X148412000Y-104648000D02*
X149575653Y-104648000D01*
X149660010Y-104732357D02*
X149647648Y-104719995D01*
X149660010Y-105484400D02*
X149660010Y-104732357D01*
X149196410Y-105948000D02*
X149660010Y-105484400D01*
X148412000Y-105948000D02*
X149196410Y-105948000D01*
%TO.N,+3V3*%
X146812000Y-105948000D02*
X146080000Y-105948000D01*
X147172002Y-105948000D02*
X146812000Y-105948000D01*
X147822002Y-105298000D02*
X147172002Y-105948000D01*
X148412000Y-105298000D02*
X147822002Y-105298000D01*
X146080000Y-105948000D02*
X145669000Y-105537000D01*
X147836999Y-105373001D02*
X147836999Y-106371499D01*
X147912000Y-105298000D02*
X147836999Y-105373001D01*
X148412000Y-105298000D02*
X147912000Y-105298000D01*
X147836999Y-106371499D02*
X148336000Y-106870500D01*
X148412000Y-106794500D02*
X148336000Y-106870500D01*
X148412000Y-106598000D02*
X148412000Y-106794500D01*
X144653000Y-105537000D02*
X143764000Y-104648000D01*
X145669000Y-105537000D02*
X144653000Y-105537000D01*
%TO.N,/SDA*%
X143764000Y-102750000D02*
X143764000Y-101600000D01*
X146312000Y-105298000D02*
X143764000Y-102750000D01*
X146812000Y-105298000D02*
X146312000Y-105298000D01*
%TO.N,/SCL*%
X146812000Y-102108000D02*
X146304000Y-101600000D01*
X146812000Y-104648000D02*
X146812000Y-102108000D01*
%TD*%
D14*
%TO.N,+3V3*%
X143045579Y-100724602D02*
X142888602Y-100881579D01*
X142765266Y-101066165D01*
X142680310Y-101271266D01*
X142637000Y-101489000D01*
X142637000Y-101711000D01*
X142680310Y-101928734D01*
X142765266Y-102133835D01*
X142888602Y-102318421D01*
X143045579Y-102475398D01*
X143230165Y-102598734D01*
X143312000Y-102632631D01*
X143312000Y-102727795D01*
X143309813Y-102750000D01*
X143312000Y-102772204D01*
X143318540Y-102838606D01*
X143344386Y-102923809D01*
X143386357Y-103002332D01*
X143442841Y-103071159D01*
X143460100Y-103085323D01*
X143925013Y-103550237D01*
X143891000Y-103584250D01*
X143891000Y-104521000D01*
X143911000Y-104521000D01*
X143911000Y-104775000D01*
X143891000Y-104775000D01*
X143891000Y-104795000D01*
X143637000Y-104795000D01*
X143637000Y-104775000D01*
X142562750Y-104775000D01*
X142404000Y-104933750D01*
X142400928Y-105235500D01*
X142413188Y-105359982D01*
X142449498Y-105479680D01*
X142508463Y-105589994D01*
X142587815Y-105686685D01*
X142684506Y-105766037D01*
X142794820Y-105825002D01*
X142914518Y-105861312D01*
X143027417Y-105872431D01*
X142967557Y-105904427D01*
X142879881Y-105976381D01*
X142807927Y-106064057D01*
X142754460Y-106164086D01*
X142721535Y-106272624D01*
X142710418Y-106385500D01*
X142710418Y-107060500D01*
X142721535Y-107173376D01*
X142754460Y-107281914D01*
X142807927Y-107381943D01*
X142879881Y-107469619D01*
X142967557Y-107541573D01*
X143067586Y-107595040D01*
X143176124Y-107627965D01*
X143289000Y-107639082D01*
X144239000Y-107639082D01*
X144351876Y-107627965D01*
X144460414Y-107595040D01*
X144560443Y-107541573D01*
X144648119Y-107469619D01*
X144720073Y-107381943D01*
X144773540Y-107281914D01*
X144805972Y-107175000D01*
X145072366Y-107175000D01*
X145078564Y-107181198D01*
X145197636Y-107260759D01*
X145329942Y-107315562D01*
X145470397Y-107343500D01*
X145613603Y-107343500D01*
X145754058Y-107315562D01*
X145886364Y-107260759D01*
X146005436Y-107181198D01*
X146106698Y-107079936D01*
X146126701Y-107050000D01*
X146386548Y-107050000D01*
X146436257Y-107076570D01*
X146497897Y-107095268D01*
X146562000Y-107101582D01*
X147062000Y-107101582D01*
X147126103Y-107095268D01*
X147187743Y-107076570D01*
X147244550Y-107046206D01*
X147294343Y-107005343D01*
X147335206Y-106955550D01*
X147365570Y-106898743D01*
X147384268Y-106837103D01*
X147387454Y-106804750D01*
X147527000Y-106804750D01*
X147539914Y-106914932D01*
X147579557Y-107033568D01*
X147641583Y-107142190D01*
X147723608Y-107236625D01*
X147822480Y-107313243D01*
X147934400Y-107369099D01*
X148055066Y-107402048D01*
X148130250Y-107408000D01*
X148289000Y-107249250D01*
X148289000Y-106646000D01*
X148535000Y-106646000D01*
X148535000Y-107249250D01*
X148693750Y-107408000D01*
X148768934Y-107402048D01*
X148889600Y-107369099D01*
X149001520Y-107313243D01*
X149060549Y-107267500D01*
X150020928Y-107267500D01*
X150033188Y-107391982D01*
X150069498Y-107511680D01*
X150128463Y-107621994D01*
X150207815Y-107718685D01*
X150304506Y-107798037D01*
X150414820Y-107857002D01*
X150534518Y-107893312D01*
X150659000Y-107905572D01*
X151098250Y-107902500D01*
X151257000Y-107743750D01*
X151257000Y-106807000D01*
X151511000Y-106807000D01*
X151511000Y-107743750D01*
X151669750Y-107902500D01*
X152109000Y-107905572D01*
X152233482Y-107893312D01*
X152353180Y-107857002D01*
X152463494Y-107798037D01*
X152560185Y-107718685D01*
X152639537Y-107621994D01*
X152698502Y-107511680D01*
X152734812Y-107391982D01*
X152747072Y-107267500D01*
X152744000Y-106965750D01*
X152585250Y-106807000D01*
X151511000Y-106807000D01*
X151257000Y-106807000D01*
X150182750Y-106807000D01*
X150024000Y-106965750D01*
X150020928Y-107267500D01*
X149060549Y-107267500D01*
X149100392Y-107236625D01*
X149182417Y-107142190D01*
X149244443Y-107033568D01*
X149284086Y-106914932D01*
X149297000Y-106804750D01*
X149138250Y-106646000D01*
X148535000Y-106646000D01*
X148289000Y-106646000D01*
X147685750Y-106646000D01*
X147527000Y-106804750D01*
X147387454Y-106804750D01*
X147390582Y-106773000D01*
X147390582Y-106668702D01*
X147401520Y-106663243D01*
X147500392Y-106586625D01*
X147582417Y-106492190D01*
X147598963Y-106463213D01*
X147685750Y-106550000D01*
X148289000Y-106550000D01*
X148289000Y-106451582D01*
X148535000Y-106451582D01*
X148535000Y-106550000D01*
X149138250Y-106550000D01*
X149297000Y-106391250D01*
X149296839Y-106389874D01*
X149370220Y-106367614D01*
X149448743Y-106325643D01*
X149517569Y-106269159D01*
X149531733Y-106251900D01*
X149963921Y-105819714D01*
X149981169Y-105805559D01*
X150037653Y-105736733D01*
X150079624Y-105658210D01*
X150105470Y-105573007D01*
X150112010Y-105506605D01*
X150112010Y-105506604D01*
X150114197Y-105484401D01*
X150112010Y-105462196D01*
X150112010Y-105211772D01*
X150212346Y-105111436D01*
X150248719Y-105057000D01*
X150342028Y-105057000D01*
X150374460Y-105163914D01*
X150427927Y-105263943D01*
X150499881Y-105351619D01*
X150587557Y-105423573D01*
X150647417Y-105455569D01*
X150534518Y-105466688D01*
X150414820Y-105502998D01*
X150304506Y-105561963D01*
X150207815Y-105641315D01*
X150128463Y-105738006D01*
X150069498Y-105848320D01*
X150033188Y-105968018D01*
X150020928Y-106092500D01*
X150024000Y-106394250D01*
X150182750Y-106553000D01*
X151257000Y-106553000D01*
X151257000Y-106533000D01*
X151511000Y-106533000D01*
X151511000Y-106553000D01*
X152585250Y-106553000D01*
X152744000Y-106394250D01*
X152747072Y-106092500D01*
X152734812Y-105968018D01*
X152698502Y-105848320D01*
X152639537Y-105738006D01*
X152560185Y-105641315D01*
X152463494Y-105561963D01*
X152353180Y-105502998D01*
X152233482Y-105466688D01*
X152120583Y-105455569D01*
X152180443Y-105423573D01*
X152268119Y-105351619D01*
X152340073Y-105263943D01*
X152393540Y-105163914D01*
X152426465Y-105055376D01*
X152437582Y-104942500D01*
X152437582Y-104267500D01*
X152426465Y-104154624D01*
X152393540Y-104046086D01*
X152340073Y-103946057D01*
X152268119Y-103858381D01*
X152180443Y-103786427D01*
X152080414Y-103732960D01*
X151971876Y-103700035D01*
X151859000Y-103688918D01*
X150909000Y-103688918D01*
X150796124Y-103700035D01*
X150687586Y-103732960D01*
X150587557Y-103786427D01*
X150499881Y-103858381D01*
X150427927Y-103946057D01*
X150374460Y-104046086D01*
X150342028Y-104153000D01*
X150180782Y-104153000D01*
X150111084Y-104083302D01*
X149992012Y-104003741D01*
X149859706Y-103948938D01*
X149719251Y-103921000D01*
X149576045Y-103921000D01*
X149435590Y-103948938D01*
X149303284Y-104003741D01*
X149184212Y-104083302D01*
X149082950Y-104184564D01*
X149075309Y-104196000D01*
X148837452Y-104196000D01*
X148787743Y-104169430D01*
X148726103Y-104150732D01*
X148662000Y-104144418D01*
X148162000Y-104144418D01*
X148097897Y-104150732D01*
X148036257Y-104169430D01*
X147979450Y-104199794D01*
X147929657Y-104240657D01*
X147888794Y-104290450D01*
X147858430Y-104347257D01*
X147839732Y-104408897D01*
X147833418Y-104473000D01*
X147833418Y-104577298D01*
X147822480Y-104582757D01*
X147723608Y-104659375D01*
X147641583Y-104753810D01*
X147579557Y-104862432D01*
X147539914Y-104981068D01*
X147527000Y-105091250D01*
X147685750Y-105250000D01*
X148289000Y-105250000D01*
X148289000Y-105151582D01*
X148535000Y-105151582D01*
X148535000Y-105250000D01*
X148559000Y-105250000D01*
X148559000Y-105346000D01*
X148535000Y-105346000D01*
X148535000Y-105444418D01*
X148289000Y-105444418D01*
X148289000Y-105346000D01*
X147685750Y-105346000D01*
X147598963Y-105432787D01*
X147582417Y-105403810D01*
X147500392Y-105309375D01*
X147401520Y-105232757D01*
X147390582Y-105227298D01*
X147390582Y-105123000D01*
X147384268Y-105058897D01*
X147365570Y-104997257D01*
X147352604Y-104973000D01*
X147365570Y-104948743D01*
X147384268Y-104887103D01*
X147390582Y-104823000D01*
X147390582Y-104473000D01*
X147384268Y-104408897D01*
X147365570Y-104347257D01*
X147335206Y-104290450D01*
X147294343Y-104240657D01*
X147264000Y-104215756D01*
X147264000Y-102191805D01*
X147302734Y-102133835D01*
X147387690Y-101928734D01*
X147431000Y-101711000D01*
X147431000Y-101489000D01*
X147387690Y-101271266D01*
X147302734Y-101066165D01*
X147179398Y-100881579D01*
X147022421Y-100724602D01*
X147002064Y-100711000D01*
X148145936Y-100711000D01*
X148125579Y-100724602D01*
X147968602Y-100881579D01*
X147845266Y-101066165D01*
X147760310Y-101271266D01*
X147717000Y-101489000D01*
X147717000Y-101711000D01*
X147760310Y-101928734D01*
X147845266Y-102133835D01*
X147968602Y-102318421D01*
X148125579Y-102475398D01*
X148310165Y-102598734D01*
X148515266Y-102683690D01*
X148733000Y-102727000D01*
X148955000Y-102727000D01*
X149172734Y-102683690D01*
X149377835Y-102598734D01*
X149386862Y-102592702D01*
X150570903Y-102592702D01*
X150642486Y-102836671D01*
X150897996Y-102957571D01*
X151172184Y-103026300D01*
X151454512Y-103040217D01*
X151734130Y-102998787D01*
X152000292Y-102903603D01*
X152125514Y-102836671D01*
X152197097Y-102592702D01*
X151384000Y-101779605D01*
X150570903Y-102592702D01*
X149386862Y-102592702D01*
X149562421Y-102475398D01*
X149719398Y-102318421D01*
X149842734Y-102133835D01*
X149927690Y-101928734D01*
X149958840Y-101772133D01*
X149985213Y-101950130D01*
X150080397Y-102216292D01*
X150147329Y-102341514D01*
X150391298Y-102413097D01*
X151204395Y-101600000D01*
X151190253Y-101585858D01*
X151369858Y-101406253D01*
X151384000Y-101420395D01*
X151398143Y-101406253D01*
X151577748Y-101585858D01*
X151563605Y-101600000D01*
X152376702Y-102413097D01*
X152620671Y-102341514D01*
X152741571Y-102086004D01*
X152781000Y-101928706D01*
X152781000Y-108077000D01*
X142367000Y-108077000D01*
X142367000Y-104060500D01*
X142400928Y-104060500D01*
X142404000Y-104362250D01*
X142562750Y-104521000D01*
X143637000Y-104521000D01*
X143637000Y-103584250D01*
X143478250Y-103425500D01*
X143039000Y-103422428D01*
X142914518Y-103434688D01*
X142794820Y-103470998D01*
X142684506Y-103529963D01*
X142587815Y-103609315D01*
X142508463Y-103706006D01*
X142449498Y-103816320D01*
X142413188Y-103936018D01*
X142400928Y-104060500D01*
X142367000Y-104060500D01*
X142367000Y-100711000D01*
X143065936Y-100711000D01*
X143045579Y-100724602D01*
%TA.AperFunction,Conductor*%
D15*
G36*
X143045579Y-100724602D02*
G01*
X142888602Y-100881579D01*
X142765266Y-101066165D01*
X142680310Y-101271266D01*
X142637000Y-101489000D01*
X142637000Y-101711000D01*
X142680310Y-101928734D01*
X142765266Y-102133835D01*
X142888602Y-102318421D01*
X143045579Y-102475398D01*
X143230165Y-102598734D01*
X143312000Y-102632631D01*
X143312000Y-102727795D01*
X143309813Y-102750000D01*
X143312000Y-102772204D01*
X143318540Y-102838606D01*
X143344386Y-102923809D01*
X143386357Y-103002332D01*
X143442841Y-103071159D01*
X143460100Y-103085323D01*
X143925013Y-103550237D01*
X143891000Y-103584250D01*
X143891000Y-104521000D01*
X143911000Y-104521000D01*
X143911000Y-104775000D01*
X143891000Y-104775000D01*
X143891000Y-104795000D01*
X143637000Y-104795000D01*
X143637000Y-104775000D01*
X142562750Y-104775000D01*
X142404000Y-104933750D01*
X142400928Y-105235500D01*
X142413188Y-105359982D01*
X142449498Y-105479680D01*
X142508463Y-105589994D01*
X142587815Y-105686685D01*
X142684506Y-105766037D01*
X142794820Y-105825002D01*
X142914518Y-105861312D01*
X143027417Y-105872431D01*
X142967557Y-105904427D01*
X142879881Y-105976381D01*
X142807927Y-106064057D01*
X142754460Y-106164086D01*
X142721535Y-106272624D01*
X142710418Y-106385500D01*
X142710418Y-107060500D01*
X142721535Y-107173376D01*
X142754460Y-107281914D01*
X142807927Y-107381943D01*
X142879881Y-107469619D01*
X142967557Y-107541573D01*
X143067586Y-107595040D01*
X143176124Y-107627965D01*
X143289000Y-107639082D01*
X144239000Y-107639082D01*
X144351876Y-107627965D01*
X144460414Y-107595040D01*
X144560443Y-107541573D01*
X144648119Y-107469619D01*
X144720073Y-107381943D01*
X144773540Y-107281914D01*
X144805972Y-107175000D01*
X145072366Y-107175000D01*
X145078564Y-107181198D01*
X145197636Y-107260759D01*
X145329942Y-107315562D01*
X145470397Y-107343500D01*
X145613603Y-107343500D01*
X145754058Y-107315562D01*
X145886364Y-107260759D01*
X146005436Y-107181198D01*
X146106698Y-107079936D01*
X146126701Y-107050000D01*
X146386548Y-107050000D01*
X146436257Y-107076570D01*
X146497897Y-107095268D01*
X146562000Y-107101582D01*
X147062000Y-107101582D01*
X147126103Y-107095268D01*
X147187743Y-107076570D01*
X147244550Y-107046206D01*
X147294343Y-107005343D01*
X147335206Y-106955550D01*
X147365570Y-106898743D01*
X147384268Y-106837103D01*
X147387454Y-106804750D01*
X147527000Y-106804750D01*
X147539914Y-106914932D01*
X147579557Y-107033568D01*
X147641583Y-107142190D01*
X147723608Y-107236625D01*
X147822480Y-107313243D01*
X147934400Y-107369099D01*
X148055066Y-107402048D01*
X148130250Y-107408000D01*
X148289000Y-107249250D01*
X148289000Y-106646000D01*
X148535000Y-106646000D01*
X148535000Y-107249250D01*
X148693750Y-107408000D01*
X148768934Y-107402048D01*
X148889600Y-107369099D01*
X149001520Y-107313243D01*
X149060549Y-107267500D01*
X150020928Y-107267500D01*
X150033188Y-107391982D01*
X150069498Y-107511680D01*
X150128463Y-107621994D01*
X150207815Y-107718685D01*
X150304506Y-107798037D01*
X150414820Y-107857002D01*
X150534518Y-107893312D01*
X150659000Y-107905572D01*
X151098250Y-107902500D01*
X151257000Y-107743750D01*
X151257000Y-106807000D01*
X151511000Y-106807000D01*
X151511000Y-107743750D01*
X151669750Y-107902500D01*
X152109000Y-107905572D01*
X152233482Y-107893312D01*
X152353180Y-107857002D01*
X152463494Y-107798037D01*
X152560185Y-107718685D01*
X152639537Y-107621994D01*
X152698502Y-107511680D01*
X152734812Y-107391982D01*
X152747072Y-107267500D01*
X152744000Y-106965750D01*
X152585250Y-106807000D01*
X151511000Y-106807000D01*
X151257000Y-106807000D01*
X150182750Y-106807000D01*
X150024000Y-106965750D01*
X150020928Y-107267500D01*
X149060549Y-107267500D01*
X149100392Y-107236625D01*
X149182417Y-107142190D01*
X149244443Y-107033568D01*
X149284086Y-106914932D01*
X149297000Y-106804750D01*
X149138250Y-106646000D01*
X148535000Y-106646000D01*
X148289000Y-106646000D01*
X147685750Y-106646000D01*
X147527000Y-106804750D01*
X147387454Y-106804750D01*
X147390582Y-106773000D01*
X147390582Y-106668702D01*
X147401520Y-106663243D01*
X147500392Y-106586625D01*
X147582417Y-106492190D01*
X147598963Y-106463213D01*
X147685750Y-106550000D01*
X148289000Y-106550000D01*
X148289000Y-106451582D01*
X148535000Y-106451582D01*
X148535000Y-106550000D01*
X149138250Y-106550000D01*
X149297000Y-106391250D01*
X149296839Y-106389874D01*
X149370220Y-106367614D01*
X149448743Y-106325643D01*
X149517569Y-106269159D01*
X149531733Y-106251900D01*
X149963921Y-105819714D01*
X149981169Y-105805559D01*
X150037653Y-105736733D01*
X150079624Y-105658210D01*
X150105470Y-105573007D01*
X150112010Y-105506605D01*
X150112010Y-105506604D01*
X150114197Y-105484401D01*
X150112010Y-105462196D01*
X150112010Y-105211772D01*
X150212346Y-105111436D01*
X150248719Y-105057000D01*
X150342028Y-105057000D01*
X150374460Y-105163914D01*
X150427927Y-105263943D01*
X150499881Y-105351619D01*
X150587557Y-105423573D01*
X150647417Y-105455569D01*
X150534518Y-105466688D01*
X150414820Y-105502998D01*
X150304506Y-105561963D01*
X150207815Y-105641315D01*
X150128463Y-105738006D01*
X150069498Y-105848320D01*
X150033188Y-105968018D01*
X150020928Y-106092500D01*
X150024000Y-106394250D01*
X150182750Y-106553000D01*
X151257000Y-106553000D01*
X151257000Y-106533000D01*
X151511000Y-106533000D01*
X151511000Y-106553000D01*
X152585250Y-106553000D01*
X152744000Y-106394250D01*
X152747072Y-106092500D01*
X152734812Y-105968018D01*
X152698502Y-105848320D01*
X152639537Y-105738006D01*
X152560185Y-105641315D01*
X152463494Y-105561963D01*
X152353180Y-105502998D01*
X152233482Y-105466688D01*
X152120583Y-105455569D01*
X152180443Y-105423573D01*
X152268119Y-105351619D01*
X152340073Y-105263943D01*
X152393540Y-105163914D01*
X152426465Y-105055376D01*
X152437582Y-104942500D01*
X152437582Y-104267500D01*
X152426465Y-104154624D01*
X152393540Y-104046086D01*
X152340073Y-103946057D01*
X152268119Y-103858381D01*
X152180443Y-103786427D01*
X152080414Y-103732960D01*
X151971876Y-103700035D01*
X151859000Y-103688918D01*
X150909000Y-103688918D01*
X150796124Y-103700035D01*
X150687586Y-103732960D01*
X150587557Y-103786427D01*
X150499881Y-103858381D01*
X150427927Y-103946057D01*
X150374460Y-104046086D01*
X150342028Y-104153000D01*
X150180782Y-104153000D01*
X150111084Y-104083302D01*
X149992012Y-104003741D01*
X149859706Y-103948938D01*
X149719251Y-103921000D01*
X149576045Y-103921000D01*
X149435590Y-103948938D01*
X149303284Y-104003741D01*
X149184212Y-104083302D01*
X149082950Y-104184564D01*
X149075309Y-104196000D01*
X148837452Y-104196000D01*
X148787743Y-104169430D01*
X148726103Y-104150732D01*
X148662000Y-104144418D01*
X148162000Y-104144418D01*
X148097897Y-104150732D01*
X148036257Y-104169430D01*
X147979450Y-104199794D01*
X147929657Y-104240657D01*
X147888794Y-104290450D01*
X147858430Y-104347257D01*
X147839732Y-104408897D01*
X147833418Y-104473000D01*
X147833418Y-104577298D01*
X147822480Y-104582757D01*
X147723608Y-104659375D01*
X147641583Y-104753810D01*
X147579557Y-104862432D01*
X147539914Y-104981068D01*
X147527000Y-105091250D01*
X147685750Y-105250000D01*
X148289000Y-105250000D01*
X148289000Y-105151582D01*
X148535000Y-105151582D01*
X148535000Y-105250000D01*
X148559000Y-105250000D01*
X148559000Y-105346000D01*
X148535000Y-105346000D01*
X148535000Y-105444418D01*
X148289000Y-105444418D01*
X148289000Y-105346000D01*
X147685750Y-105346000D01*
X147598963Y-105432787D01*
X147582417Y-105403810D01*
X147500392Y-105309375D01*
X147401520Y-105232757D01*
X147390582Y-105227298D01*
X147390582Y-105123000D01*
X147384268Y-105058897D01*
X147365570Y-104997257D01*
X147352604Y-104973000D01*
X147365570Y-104948743D01*
X147384268Y-104887103D01*
X147390582Y-104823000D01*
X147390582Y-104473000D01*
X147384268Y-104408897D01*
X147365570Y-104347257D01*
X147335206Y-104290450D01*
X147294343Y-104240657D01*
X147264000Y-104215756D01*
X147264000Y-102191805D01*
X147302734Y-102133835D01*
X147387690Y-101928734D01*
X147431000Y-101711000D01*
X147431000Y-101489000D01*
X147387690Y-101271266D01*
X147302734Y-101066165D01*
X147179398Y-100881579D01*
X147022421Y-100724602D01*
X147002064Y-100711000D01*
X148145936Y-100711000D01*
X148125579Y-100724602D01*
X147968602Y-100881579D01*
X147845266Y-101066165D01*
X147760310Y-101271266D01*
X147717000Y-101489000D01*
X147717000Y-101711000D01*
X147760310Y-101928734D01*
X147845266Y-102133835D01*
X147968602Y-102318421D01*
X148125579Y-102475398D01*
X148310165Y-102598734D01*
X148515266Y-102683690D01*
X148733000Y-102727000D01*
X148955000Y-102727000D01*
X149172734Y-102683690D01*
X149377835Y-102598734D01*
X149386862Y-102592702D01*
X150570903Y-102592702D01*
X150642486Y-102836671D01*
X150897996Y-102957571D01*
X151172184Y-103026300D01*
X151454512Y-103040217D01*
X151734130Y-102998787D01*
X152000292Y-102903603D01*
X152125514Y-102836671D01*
X152197097Y-102592702D01*
X151384000Y-101779605D01*
X150570903Y-102592702D01*
X149386862Y-102592702D01*
X149562421Y-102475398D01*
X149719398Y-102318421D01*
X149842734Y-102133835D01*
X149927690Y-101928734D01*
X149958840Y-101772133D01*
X149985213Y-101950130D01*
X150080397Y-102216292D01*
X150147329Y-102341514D01*
X150391298Y-102413097D01*
X151204395Y-101600000D01*
X151190253Y-101585858D01*
X151369858Y-101406253D01*
X151384000Y-101420395D01*
X151398143Y-101406253D01*
X151577748Y-101585858D01*
X151563605Y-101600000D01*
X152376702Y-102413097D01*
X152620671Y-102341514D01*
X152741571Y-102086004D01*
X152781000Y-101928706D01*
X152781000Y-108077000D01*
X142367000Y-108077000D01*
X142367000Y-104060500D01*
X142400928Y-104060500D01*
X142404000Y-104362250D01*
X142562750Y-104521000D01*
X143637000Y-104521000D01*
X143637000Y-103584250D01*
X143478250Y-103425500D01*
X143039000Y-103422428D01*
X142914518Y-103434688D01*
X142794820Y-103470998D01*
X142684506Y-103529963D01*
X142587815Y-103609315D01*
X142508463Y-103706006D01*
X142449498Y-103816320D01*
X142413188Y-103936018D01*
X142400928Y-104060500D01*
X142367000Y-104060500D01*
X142367000Y-100711000D01*
X143065936Y-100711000D01*
X143045579Y-100724602D01*
G37*
%TD.AperFunction*%
D14*
X145956427Y-105581652D02*
X145939914Y-105631068D01*
X145927000Y-105741250D01*
X146085750Y-105900000D01*
X146689000Y-105900000D01*
X146689000Y-105801582D01*
X146935000Y-105801582D01*
X146935000Y-105900000D01*
X147538250Y-105900000D01*
X147625037Y-105813213D01*
X147641583Y-105842190D01*
X147723608Y-105936625D01*
X147738287Y-105948000D01*
X147723608Y-105959375D01*
X147641583Y-106053810D01*
X147625037Y-106082787D01*
X147538250Y-105996000D01*
X146935000Y-105996000D01*
X146935000Y-106094418D01*
X146689000Y-106094418D01*
X146689000Y-105996000D01*
X146085750Y-105996000D01*
X146017692Y-106064058D01*
X146005436Y-106051802D01*
X145886364Y-105972241D01*
X145754058Y-105917438D01*
X145613603Y-105889500D01*
X145470397Y-105889500D01*
X145329942Y-105917438D01*
X145197636Y-105972241D01*
X145078564Y-106051802D01*
X144977302Y-106153064D01*
X144898500Y-106271000D01*
X144805972Y-106271000D01*
X144773540Y-106164086D01*
X144720073Y-106064057D01*
X144648119Y-105976381D01*
X144560443Y-105904427D01*
X144500583Y-105872431D01*
X144613482Y-105861312D01*
X144733180Y-105825002D01*
X144843494Y-105766037D01*
X144940185Y-105686685D01*
X145019537Y-105589994D01*
X145078502Y-105479680D01*
X145114812Y-105359982D01*
X145127072Y-105235500D01*
X145124000Y-104933750D01*
X144965252Y-104775002D01*
X145124000Y-104775002D01*
X145124000Y-104749224D01*
X145956427Y-105581652D01*
%TA.AperFunction,Conductor*%
D15*
G36*
X145956427Y-105581652D02*
G01*
X145939914Y-105631068D01*
X145927000Y-105741250D01*
X146085750Y-105900000D01*
X146689000Y-105900000D01*
X146689000Y-105801582D01*
X146935000Y-105801582D01*
X146935000Y-105900000D01*
X147538250Y-105900000D01*
X147625037Y-105813213D01*
X147641583Y-105842190D01*
X147723608Y-105936625D01*
X147738287Y-105948000D01*
X147723608Y-105959375D01*
X147641583Y-106053810D01*
X147625037Y-106082787D01*
X147538250Y-105996000D01*
X146935000Y-105996000D01*
X146935000Y-106094418D01*
X146689000Y-106094418D01*
X146689000Y-105996000D01*
X146085750Y-105996000D01*
X146017692Y-106064058D01*
X146005436Y-106051802D01*
X145886364Y-105972241D01*
X145754058Y-105917438D01*
X145613603Y-105889500D01*
X145470397Y-105889500D01*
X145329942Y-105917438D01*
X145197636Y-105972241D01*
X145078564Y-106051802D01*
X144977302Y-106153064D01*
X144898500Y-106271000D01*
X144805972Y-106271000D01*
X144773540Y-106164086D01*
X144720073Y-106064057D01*
X144648119Y-105976381D01*
X144560443Y-105904427D01*
X144500583Y-105872431D01*
X144613482Y-105861312D01*
X144733180Y-105825002D01*
X144843494Y-105766037D01*
X144940185Y-105686685D01*
X145019537Y-105589994D01*
X145078502Y-105479680D01*
X145114812Y-105359982D01*
X145127072Y-105235500D01*
X145124000Y-104933750D01*
X144965252Y-104775002D01*
X145124000Y-104775002D01*
X145124000Y-104749224D01*
X145956427Y-105581652D01*
G37*
%TD.AperFunction*%
%TD*%
M02*
