%TF.GenerationSoftware,KiCad,Pcbnew,(5.1.8)-1*%
%TF.CreationDate,2021-01-04T23:46:21-05:00*%
%TF.ProjectId,DAD_BMP280_breakout,4441445f-424d-4503-9238-305f62726561,rev?*%
%TF.SameCoordinates,Original*%
%TF.FileFunction,Copper,L2,Bot*%
%TF.FilePolarity,Positive*%
%FSLAX46Y46*%
G04 Gerber Fmt 4.6, Leading zero omitted, Abs format (unit mm)*
G04 Created by KiCad (PCBNEW (5.1.8)-1) date 2021-01-04 23:46:21*
%MOMM*%
%LPD*%
G01*
G04 APERTURE LIST*
%TA.AperFunction,ComponentPad*%
%ADD10C,1.600000*%
%TD*%
%TA.AperFunction,ViaPad*%
%ADD11C,0.800000*%
%TD*%
%TA.AperFunction,Conductor*%
%ADD12C,0.254000*%
%TD*%
%TA.AperFunction,Conductor*%
%ADD13C,0.100000*%
%TD*%
G04 APERTURE END LIST*
D10*
%TO.P,J1,1*%
%TO.N,+3V3*%
X151384000Y-101600000D03*
%TO.P,J1,2*%
%TO.N,GND*%
X148844000Y-101600000D03*
%TO.P,J1,3*%
%TO.N,/SCL*%
X146304000Y-101600000D03*
%TO.P,J1,4*%
%TO.N,/SDA*%
X143764000Y-101600000D03*
%TD*%
D11*
%TO.N,GND*%
X145542000Y-106616500D03*
X149647648Y-104648000D03*
%TD*%
D12*
%TO.N,GND*%
X143045579Y-100724602D02*
X142888602Y-100881579D01*
X142765266Y-101066165D01*
X142680310Y-101271266D01*
X142637000Y-101489000D01*
X142637000Y-101711000D01*
X142680310Y-101928734D01*
X142765266Y-102133835D01*
X142888602Y-102318421D01*
X143045579Y-102475398D01*
X143230165Y-102598734D01*
X143435266Y-102683690D01*
X143653000Y-102727000D01*
X143875000Y-102727000D01*
X144092734Y-102683690D01*
X144297835Y-102598734D01*
X144482421Y-102475398D01*
X144639398Y-102318421D01*
X144762734Y-102133835D01*
X144847690Y-101928734D01*
X144891000Y-101711000D01*
X144891000Y-101489000D01*
X144847690Y-101271266D01*
X144762734Y-101066165D01*
X144639398Y-100881579D01*
X144482421Y-100724602D01*
X144462064Y-100711000D01*
X145605936Y-100711000D01*
X145585579Y-100724602D01*
X145428602Y-100881579D01*
X145305266Y-101066165D01*
X145220310Y-101271266D01*
X145177000Y-101489000D01*
X145177000Y-101711000D01*
X145220310Y-101928734D01*
X145305266Y-102133835D01*
X145428602Y-102318421D01*
X145585579Y-102475398D01*
X145770165Y-102598734D01*
X145975266Y-102683690D01*
X146193000Y-102727000D01*
X146415000Y-102727000D01*
X146632734Y-102683690D01*
X146837835Y-102598734D01*
X146846862Y-102592702D01*
X148030903Y-102592702D01*
X148102486Y-102836671D01*
X148357996Y-102957571D01*
X148632184Y-103026300D01*
X148914512Y-103040217D01*
X149194130Y-102998787D01*
X149460292Y-102903603D01*
X149585514Y-102836671D01*
X149657097Y-102592702D01*
X148844000Y-101779605D01*
X148030903Y-102592702D01*
X146846862Y-102592702D01*
X147022421Y-102475398D01*
X147179398Y-102318421D01*
X147302734Y-102133835D01*
X147387690Y-101928734D01*
X147418840Y-101772133D01*
X147445213Y-101950130D01*
X147540397Y-102216292D01*
X147607329Y-102341514D01*
X147851298Y-102413097D01*
X148664395Y-101600000D01*
X148650253Y-101585858D01*
X148829858Y-101406253D01*
X148844000Y-101420395D01*
X148858143Y-101406253D01*
X149037748Y-101585858D01*
X149023605Y-101600000D01*
X149836702Y-102413097D01*
X150080671Y-102341514D01*
X150201571Y-102086004D01*
X150270300Y-101811816D01*
X150271641Y-101784607D01*
X150300310Y-101928734D01*
X150385266Y-102133835D01*
X150508602Y-102318421D01*
X150665579Y-102475398D01*
X150850165Y-102598734D01*
X151055266Y-102683690D01*
X151273000Y-102727000D01*
X151495000Y-102727000D01*
X151712734Y-102683690D01*
X151917835Y-102598734D01*
X152102421Y-102475398D01*
X152259398Y-102318421D01*
X152382734Y-102133835D01*
X152467690Y-101928734D01*
X152511000Y-101711000D01*
X152511000Y-101489000D01*
X152467690Y-101271266D01*
X152382734Y-101066165D01*
X152259398Y-100881579D01*
X152102421Y-100724602D01*
X152082064Y-100711000D01*
X152781000Y-100711000D01*
X152781000Y-108077000D01*
X142367000Y-108077000D01*
X142367000Y-100711000D01*
X143065936Y-100711000D01*
X143045579Y-100724602D01*
%TA.AperFunction,Conductor*%
D13*
G36*
X143045579Y-100724602D02*
G01*
X142888602Y-100881579D01*
X142765266Y-101066165D01*
X142680310Y-101271266D01*
X142637000Y-101489000D01*
X142637000Y-101711000D01*
X142680310Y-101928734D01*
X142765266Y-102133835D01*
X142888602Y-102318421D01*
X143045579Y-102475398D01*
X143230165Y-102598734D01*
X143435266Y-102683690D01*
X143653000Y-102727000D01*
X143875000Y-102727000D01*
X144092734Y-102683690D01*
X144297835Y-102598734D01*
X144482421Y-102475398D01*
X144639398Y-102318421D01*
X144762734Y-102133835D01*
X144847690Y-101928734D01*
X144891000Y-101711000D01*
X144891000Y-101489000D01*
X144847690Y-101271266D01*
X144762734Y-101066165D01*
X144639398Y-100881579D01*
X144482421Y-100724602D01*
X144462064Y-100711000D01*
X145605936Y-100711000D01*
X145585579Y-100724602D01*
X145428602Y-100881579D01*
X145305266Y-101066165D01*
X145220310Y-101271266D01*
X145177000Y-101489000D01*
X145177000Y-101711000D01*
X145220310Y-101928734D01*
X145305266Y-102133835D01*
X145428602Y-102318421D01*
X145585579Y-102475398D01*
X145770165Y-102598734D01*
X145975266Y-102683690D01*
X146193000Y-102727000D01*
X146415000Y-102727000D01*
X146632734Y-102683690D01*
X146837835Y-102598734D01*
X146846862Y-102592702D01*
X148030903Y-102592702D01*
X148102486Y-102836671D01*
X148357996Y-102957571D01*
X148632184Y-103026300D01*
X148914512Y-103040217D01*
X149194130Y-102998787D01*
X149460292Y-102903603D01*
X149585514Y-102836671D01*
X149657097Y-102592702D01*
X148844000Y-101779605D01*
X148030903Y-102592702D01*
X146846862Y-102592702D01*
X147022421Y-102475398D01*
X147179398Y-102318421D01*
X147302734Y-102133835D01*
X147387690Y-101928734D01*
X147418840Y-101772133D01*
X147445213Y-101950130D01*
X147540397Y-102216292D01*
X147607329Y-102341514D01*
X147851298Y-102413097D01*
X148664395Y-101600000D01*
X148650253Y-101585858D01*
X148829858Y-101406253D01*
X148844000Y-101420395D01*
X148858143Y-101406253D01*
X149037748Y-101585858D01*
X149023605Y-101600000D01*
X149836702Y-102413097D01*
X150080671Y-102341514D01*
X150201571Y-102086004D01*
X150270300Y-101811816D01*
X150271641Y-101784607D01*
X150300310Y-101928734D01*
X150385266Y-102133835D01*
X150508602Y-102318421D01*
X150665579Y-102475398D01*
X150850165Y-102598734D01*
X151055266Y-102683690D01*
X151273000Y-102727000D01*
X151495000Y-102727000D01*
X151712734Y-102683690D01*
X151917835Y-102598734D01*
X152102421Y-102475398D01*
X152259398Y-102318421D01*
X152382734Y-102133835D01*
X152467690Y-101928734D01*
X152511000Y-101711000D01*
X152511000Y-101489000D01*
X152467690Y-101271266D01*
X152382734Y-101066165D01*
X152259398Y-100881579D01*
X152102421Y-100724602D01*
X152082064Y-100711000D01*
X152781000Y-100711000D01*
X152781000Y-108077000D01*
X142367000Y-108077000D01*
X142367000Y-100711000D01*
X143065936Y-100711000D01*
X143045579Y-100724602D01*
G37*
%TD.AperFunction*%
%TD*%
M02*
